<?xml version="1.0" standalone="no"?>
<!DOCTYPE svg PUBLIC "-//W3C//DTD SVG 20010904//EN"
 "http://www.w3.org/TR/2001/REC-SVG-20010904/DTD/svg10.dtd">
<svg version="1.0" xmlns="http://www.w3.org/2000/svg"
 width="488.000000pt" height="488.000000pt" viewBox="0 0 488.000000 488.000000"
 preserveAspectRatio="xMidYMid meet">
<metadata>
Created by potrace 1.11, written by Peter Selinger 2001-2013
</metadata>
<g transform="translate(0.000000,488.000000) scale(0.100000,-0.100000)"
fill="#000000" stroke="none">
<path d="M2245 4872 c-35 -2 -171 -24 -230 -36 -62 -13 -297 -83 -325 -97 -8
-4 -68 -33 -134 -64 -127 -60 -253 -140 -363 -228 -108 -86 -175 -156 -299
-310 -28 -34 -113 -175 -147 -243 -87 -175 -157 -406 -185 -619 -11 -82 -7
-414 6 -499 31 -197 87 -382 165 -536 67 -134 91 -169 305 -454 97 -129 258
-341 357 -473 98 -131 182 -240 185 -243 7 -6 236 -309 265 -349 18 -25 494
-653 520 -685 20 -25 69 -34 109 -21 21 7 39 15 40 17 2 1 96 127 211 278 217
288 663 877 873 1153 451 594 480 636 552 782 77 157 141 373 166 555 11 74
11 410 1 485 -18 136 -72 345 -120 470 -26 66 -113 233 -155 299 -273 422
-753 719 -1302 806 -69 11 -402 19 -495 12z m480 -391 c234 -37 475 -139 671
-284 98 -73 230 -209 289 -297 28 -41 53 -77 56 -80 12 -10 107 -216 128 -278
26 -78 56 -206 67 -287 18 -142 7 -415 -21 -540 -20 -88 -83 -252 -130 -343
-51 -96 -127 -200 -595 -817 -254 -335 -432 -570 -530 -700 -58 -77 -110 -145
-115 -151 -6 -6 -31 -38 -55 -72 -25 -34 -47 -62 -50 -62 -3 0 -54 66 -114
145 -60 80 -116 154 -125 165 -9 10 -45 59 -81 107 -54 73 -100 133 -158 208
-4 6 -31 42 -60 80 -28 39 -55 75 -60 80 -8 10 -90 120 -104 140 -4 5 -20 26
-36 45 -59 74 -152 200 -152 207 0 8 37 47 283 305 l99 103 85 -42 c160 -78
390 -115 558 -90 383 58 694 327 800 694 33 111 40 165 39 293 -3 296 -141
570 -382 758 -232 181 -554 244 -847 165 -228 -62 -419 -201 -555 -407 -176
-264 -210 -602 -92 -898 29 -72 81 -169 107 -198 12 -13 -10 -40 -160 -195
-95 -99 -175 -178 -178 -175 -62 75 -170 234 -212 313 -118 222 -165 435 -159
712 1 77 5 154 8 170 3 17 9 46 12 65 3 19 8 46 11 60 6 36 42 162 53 185 5
11 18 43 29 70 102 266 315 504 591 662 112 64 297 142 377 158 273 57 463 64
708 26z m-107 -915 c142 -52 250 -136 327 -256 65 -100 89 -184 89 -310 0
-116 -3 -140 -33 -218 -33 -87 -70 -143 -145 -217 -123 -120 -240 -169 -411
-169 -186 0 -309 54 -443 193 -55 58 -120 176 -142 261 -13 48 -17 192 -7 250
29 167 164 348 319 425 43 21 101 44 130 51 70 17 259 11 316 -10z"/>
</g>
</svg>
